<?xml version="1.0" encoding="UTF-8" standalone="no"?>
<!-- Created with Inkscape (http://www.inkscape.org/) -->

<svg
   width="269.487mm"
   height="101.196mm"
   viewBox="0 0 269.487 101.196"
   version="1.1"
   id="svg5"
   xml:space="preserve"
   inkscape:version="1.2.1 (9c6d41e410, 2022-07-14)"
   sodipodi:docname="drawing.svg"
   xmlns:inkscape="http://www.inkscape.org/namespaces/inkscape"
   xmlns:sodipodi="http://sodipodi.sourceforge.net/DTD/sodipodi-0.dtd"
   xmlns="http://www.w3.org/2000/svg"
   xmlns:svg="http://www.w3.org/2000/svg"><sodipodi:namedview
     id="namedview7"
     pagecolor="#ffffff"
     bordercolor="#000000"
     borderopacity="0.25"
     inkscape:showpageshadow="2"
     inkscape:pageopacity="0.0"
     inkscape:pagecheckerboard="0"
     inkscape:deskcolor="#d1d1d1"
     inkscape:document-units="mm"
     showgrid="false"
     inkscape:zoom="0.73584456"
     inkscape:cx="396.82294"
     inkscape:cy="453.22072"
     inkscape:window-width="1920"
     inkscape:window-height="1013"
     inkscape:window-x="-9"
     inkscape:window-y="-9"
     inkscape:window-maximized="1"
     inkscape:current-layer="layer1" /><defs
     id="defs2" /><g
     inkscape:label="Layer 1"
     inkscape:groupmode="layer"
     id="layer1"><g
       id="g179"
       transform="matrix(0.21166667,0,0,0.21166667,-34.340256,-118.41304)"><path
         transform="translate(561,567)"
         d="m 0,0 c 0.9,0.31 1.79,0.62 2.71,0.94 5.73,2.13 10.9,5.05 16.2,8.13 7.09,4.13 14.4,7.13 22.1,9.93 v 2 c 0.54,0.12 1.07,0.25 1.62,0.38 2.84,0.74 5.6,1.67 8.38,2.62 v 2 c 0.71,0.12 1.43,0.25 2.16,0.38 13.9,3.05 27.2,12 37.9,21 2.06,1.78 2.06,1.78 4.95,3.63 v 2 c 0.58,0.24 1.16,0.49 1.76,0.74 7.42,4.16 13.6,13.8 17.9,21 1.56,2.54 3.03,4.4 5.38,6.25 2.8,-0.44 5.24,-1.46 7.81,-2.62 1.17,-0.53 1.17,-0.53 2.35,-1.07 10.5,-4.81 10.5,-4.81 20.9,-9.86 2.94,-1.46 5.9,-2.76 8.92,-4.01 1.49,-0.62 1.49,-0.62 3,-1.26 16.5,-6.5 33.4,-8.53 50.9,-8.44 2.37,0.01 4.74,0 7.11,-0.01 7.76,-0.01 15.4,0.27 23.1,1.16 0.67,0.08 1.34,0.16 2.03,0.24 4.73,0.6 9.2,1.67 13.8,2.87 3.8,0.77 7.61,1.5 11.4,2.22 3.32,0.72 6.39,1.67 9.59,2.78 1.79,0.49 3.58,0.97 5.38,1.44 3.2,0.86 6.29,1.76 9.37,3 3.77,1.46 7.61,2.59 11.5,3.68 1.18,0.34 2.36,0.67 3.58,1.01 19,4.47 39.8,3.12 58.2,-2.54 14.7,-4.36 31.4,-3.45 46.5,-1.59 15.4,1.9 15.4,1.9 29.9,-2.7 2.99,-1.52 6,-2.54 9.2,-3.53 2.07,-0.67 4.08,-1.42 6.11,-2.2 10.3,-3.9 21.1,-6.58 32,-8.32 0.72,-0.12 1.44,-0.23 2.18,-0.35 12.8,-1.89 25.8,-2.1 38.7,-2.09 h 2.4 c 34.5,0.04 34.5,0.04 50,5.19 0.92,0.27 1.84,0.55 2.79,0.83 6.89,2.07 13.6,4.36 20.2,7.17 v 2 c 1.06,0.17 1.06,0.17 2.15,0.34 10.1,2.34 18.3,8.89 25.8,15.7 0.52,0.45 1.03,0.9 1.57,1.37 10.4,9.05 19.5,18.8 26.9,30.4 4.48,6.44 10.2,14.1 18,16.1 4.69,0.45 8.81,-0.78 13.3,-2.09 8.91,-2.18 18,-1.95 27.1,-1.92 2.31,0.01 4.63,0 6.95,-0.01 1.49,0 2.97,0.01 4.46,0.01 0.69,0 1.37,-0.01 2.08,-0.01 5.75,0.03 10.5,0.49 15.6,3.14 1.49,0.32 2.99,0.58 4.5,0.81 33.3,6.31 65.9,38.8 86.5,64.2 0.58,0.71 1.16,1.43 1.75,2.16 11.2,14.2 11.2,14.2 11.2,17.8 0.99,0.33 1.98,0.66 3,1 1.03,1.71 1.03,1.71 1.94,3.94 0.5,1.21 0.5,1.21 1.02,2.45 0.51,1.29 0.51,1.29 1.04,2.61 0.35,0.87 0.71,1.75 1.07,2.64 0.99,2.45 1.96,4.9 2.93,7.36 0.52,1.24 0.52,1.24 1.05,2.5 0.92,2.43 1.54,4.76 2.07,7.31 0.17,0.79 0.34,1.58 0.51,2.4 0.12,0.59 0.25,1.18 0.37,1.79 h 1 c 1.22,22.4 1.21,42.1 -8,63 -0.43,1.27 -0.85,2.54 -1.25,3.81 -1.62,4.44 -4.24,8.01 -7.03,11.8 -1.79,2.4 -1.79,2.4 -3.31,5.19 -0.7,1.09 -0.7,1.09 -1.41,2.2 h -2 c -0.23,0.72 -0.45,1.44 -0.69,2.19 -1.58,3.4 -3.57,5.26 -6.31,7.81 l -5,5 c -0.83,0.85 -1.65,1.69 -2.5,2.56 -6.6,6.44 -6.6,6.44 -10.5,6.44 v 2 c -6.13,4.45 -13.2,7.74 -20,11 -0.82,0.41 -1.63,0.82 -2.48,1.25 -21.4,10.4 -46,14.1 -69.6,14 -1.31,0 -2.62,-0.01 -3.96,-0.01 -10.9,-0.11 -21.3,-0.91 -32,-3.24 -3.33,-0.7 -6.66,-1.37 -10,-2 -0.92,-0.18 -1.84,-0.35 -2.78,-0.54 -17.6,-3.05 -35.5,-2.56 -53.2,-2.11 -5.72,0.15 -11.4,0.26 -17.2,0.38 -1.68,0.04 -1.68,0.04 -3.4,0.08 -57.5,1.21 -57.5,1.21 -72.9,-2.89 -9.57,-2.46 -20.1,1.11 -29.6,3.08 -6.59,1.32 -13.1,2.28 -19.8,2.75 -2.25,0.13 -2.25,0.13 -4.21,1.25 -3.23,0.26 -6.45,0.44 -9.68,0.61 -3.45,-0.11 -3.45,-0.11 -6.32,1.39 -14.5,1.46 -29.3,1.28 -43.8,0.19 -1.1,-0.08 -2.2,-0.17 -3.33,-0.25 -5.47,-0.47 -10.8,-1.19 -16.1,-2.5 -3.7,-0.89 -6.35,-1.32 -9.74,0.69 -1.5,1.04 -2.99,2.09 -4.48,3.15 -7.38,4.86 -15.6,8.04 -24.2,10.1 -2.46,0.58 -2.46,0.58 -4.78,1.65 -3.37,1.26 -6.72,1.71 -10.3,2.11 -0.75,0.09 -1.49,0.17 -2.25,0.26 -16.6,1.7 -33.6,0.83 -50.1,-2.08 -1.01,-0.1 -2.02,-0.2 -3.06,-0.3 -2.56,2.34 -3.82,4.62 -5.32,7.72 -1.89,3.7 -4.01,7.16 -6.24,10.7 -0.4,0.64 -0.8,1.28 -1.21,1.94 -1.02,1.59 -2.12,3.14 -3.23,4.68 h -2 l -0.94,1.88 c -0.68,1.37 -1.37,2.74 -2.06,4.12 h -3 c -0.15,0.96 -0.15,0.96 -0.31,1.94 -0.23,0.68 -0.46,1.36 -0.69,2.06 -0.99,0.33 -1.98,0.66 -3,1 -0.29,0.58 -0.58,1.15 -0.88,1.75 -1.52,3.04 -3.61,4.99 -6.12,7.25 h -2 c -0.25,0.64 -0.5,1.28 -0.75,1.94 -1.25,2.06 -1.25,2.06 -3.31,2.62 -0.64,0.15 -1.28,0.29 -1.94,0.44 l -1,3 c -2.65,1.82 -2.65,1.82 -5.94,3.69 -1.08,0.62 -2.16,1.24 -3.27,1.88 -2.79,1.43 -2.79,1.43 -4.79,1.43 v 2 c -0.88,0.34 -1.76,0.68 -2.67,1.02 -1.16,0.45 -2.32,0.9 -3.52,1.36 -1.15,0.44 -2.29,0.88 -3.48,1.33 -1.95,0.75 -3.89,1.52 -5.82,2.33 -25.4,9.7 -56.4,8.05 -81.2,-2.51 -4.23,-1.97 -8.33,-4.05 -12.3,-6.53 v -2 c -0.83,-0.19 -1.65,-0.37 -2.5,-0.56 -4.07,-1.67 -6.58,-3.91 -9.77,-6.88 -1.66,-1.64 -1.66,-1.64 -3.73,-2.56 v -2 c -0.8,-0.31 -0.8,-0.31 -1.62,-0.62 -3.3,-1.91 -5.97,-4.43 -8.38,-7.38 v -2 h -2 c -1.64,-1.86 -3.14,-3.71 -4.62,-5.69 -0.45,-0.58 -0.89,-1.17 -1.35,-1.77 -6.54,-8.8 -12.4,-17.1 -14.5,-28.1 -0.47,-2.7 -0.47,-2.7 -2.57,-5.46 -0.24,-0.7 -0.48,-1.4 -0.73,-2.12 -1.17,-2.18 -1.17,-2.18 -4.05,-2.59 -1.16,-0.1 -2.32,-0.2 -3.51,-0.3 -1.27,-0.12 -2.54,-0.24 -3.85,-0.36 -1.35,-0.11 -2.7,-0.21 -4.05,-0.32 -1.33,-0.11 -2.66,-0.23 -3.98,-0.35 -2.47,-0.22 -4.94,-0.43 -7.4,-0.63 -6.05,-0.58 -11.6,-1.61 -17.4,-3.33 -4.43,-1.12 -8.77,-1.15 -13.3,-1.12 h -2.42 c -5.27,0.05 -10.5,0.21 -15.8,0.5 -11.6,0.61 -23.1,0.64 -34.6,0.51 -36.2,-0.39 -72,-0.08 -108,3.05 -0.82,0.07 -1.63,0.14 -2.46,0.21 -5.33,0.46 -10.7,0.94 -16,1.44 -1.03,0.1 -1.03,0.1 -2.07,0.19 -1.89,0.18 -3.78,0.37 -5.67,0.56 -1.06,0.1 -2.12,0.2 -3.21,0.31 -2.48,0.21 -2.48,0.21 -4.48,1.35 -13.5,2.09 -27.3,2.2 -40.9,2.19 h -2.07 c -9.98,0 -19.4,-0.15 -29,-3.19 -1.49,-0.44 -1.49,-0.44 -3.01,-0.88 -6.59,-1.95 -12.8,-4.17 -19,-7.12 -1.77,-0.82 -3.54,-1.63 -5.31,-2.44 -0.93,-0.42 -1.86,-0.85 -2.82,-1.29 -2.85,-1.26 -5.73,-2.42 -8.62,-3.58 -5.37,-2.22 -10.4,-4.82 -15.5,-7.61 -3.72,-2.03 -7.47,-3.95 -11.3,-5.78 -5.7,-2.74 -10.7,-5.68 -15.5,-9.73 -1.76,-1.45 -3.54,-2.67 -5.47,-3.88 -1.21,-0.84 -1.21,-0.84 -2.44,-1.69 v -2 c -0.56,-0.25 -1.13,-0.49 -1.71,-0.75 -2.69,-1.47 -4.66,-3.23 -6.91,-5.31 -3.49,-3.21 -7.01,-6.37 -10.6,-9.5 -4.31,-3.88 -8.08,-8.01 -11.8,-12.4 -1.9,-2.12 -3.8,-4.23 -5.71,-6.34 -1.29,-1.66 -1.29,-1.66 -1.29,-3.66 h -2 c -1.48,-2.06 -2.81,-4.09 -4.12,-6.25 -0.38,-0.59 -0.75,-1.17 -1.13,-1.78 -2.06,-3.36 -2.75,-4.92 -2.75,-8.97 h -2 c -1.5,-3.37 -2,-5.2 -2,-9 h -2 c -0.27,-0.88 -0.53,-1.76 -0.8,-2.67 -0.53,-1.74 -0.53,-1.74 -1.08,-3.52 -0.52,-1.72 -0.52,-1.72 -1.05,-3.48 -0.91,-2.84 -1.95,-5.57 -3.07,-8.33 -0.36,-1.66 -0.69,-3.33 -1,-5 -0.33,-1.2 -0.67,-2.39 -1.01,-3.63 -1.1,-4.38 -1.3,-8.52 -1.29,-13 -0.01,-0.81 -0.01,-1.62 -0.01,-2.46 -0.01,-1.71 -0.01,-3.41 -0.01,-5.12 0.01,-2.55 -0.02,-5.09 -0.04,-7.64 -0.04,-8.57 0.38,-16.9 1.69,-25.4 0.12,-0.76 0.23,-1.52 0.35,-2.31 0.87,-5.07 2.35,-9.68 4.32,-14.4 0.32,-0.78 0.65,-1.57 0.98,-2.38 0.28,-0.63 0.56,-1.25 0.84,-1.9 0.31,-0.7 0.62,-1.39 0.93,-2.11 0.31,-0.7 0.62,-1.39 0.94,-2.11 0.32,-0.73 0.64,-1.45 0.97,-2.2 0.78,-1.77 1.56,-3.53 2.34,-5.3 h 2 c 0.4,-1.09 0.4,-1.09 0.82,-2.21 1.15,-2.72 2.47,-4.97 4.12,-7.41 0.5,-0.76 1.01,-1.52 1.52,-2.29 1.41,-1.91 2.85,-3.45 4.54,-5.09 1.11,-1.29 2.21,-2.58 3.31,-3.88 4.29,-4.9 8.33,-9.06 14.7,-11.1 v -2 c 2.97,-0.99 2.97,-0.99 6,-2 v -2 c 19.2,-10.7 19.2,-10.7 29,-12.6 2.03,-0.2 2.03,-0.2 3.05,-1.4 13.6,-2.44 27.2,-2.23 41,-2 2.27,-3.94 4.49,-7.86 6.5,-11.9 0.42,-0.84 0.83,-1.68 1.26,-2.55 0.41,-0.83 0.82,-1.66 1.24,-2.51 l 2.31,-4.62 c 0.56,-1.12 1.12,-2.23 1.69,-3.38 h 2 c 0.27,-0.72 0.54,-1.44 0.81,-2.19 1.19,-2.81 2.46,-5.29 4.19,-7.81 h 2 c 0.37,-1.09 0.37,-1.09 0.75,-2.2 4.26,-9.52 15.7,-19.9 24.2,-25.8 h 2 v -2 c 0.51,-0.25 1.03,-0.5 1.56,-0.76 2.54,-1.29 5.05,-2.65 7.56,-4.01 3.28,-1.77 6.58,-3.5 9.88,-5.23 0.91,-0.48 1.82,-0.96 2.76,-1.46 12.8,-6.29 27.7,-8.99 41.6,-11.6 0.81,-0.16 1.62,-0.31 2.46,-0.48 7.46,-1.09 14.9,-1.53 22.4,-1.67 1.09,-0.02 1.09,-0.02 2.2,-0.04 3.03,-0.06 6.05,-0.12 9.08,-0.15 2.24,-0.03 4.48,-0.07 6.72,-0.12 1.31,-0.02 2.63,-0.04 3.99,-0.06 6.51,-0.73 11.4,-3.69 16.9,-7.23 7.91,-4.96 16.2,-8.77 24.9,-12.2 1.22,-0.51 1.22,-0.51 2.47,-1.03 24.3,-9.32 47.7,-6.21 71.5,2.03 z m 503,51 4,1 z m 59,0 4,1 z m -363,4 v 1 h 5 v -1 z m 232,16 v 1 h 5 v -1 z m -91,5 v 1 h 7 v -1 z m -648,35 4,1 z m -86,76 1,2 z"
         fill="#000002"
         id="path152"
         style="display:inline" /><path
         transform="translate(561,567)"
         d="m 0,0 c 0.9,0.31 1.79,0.62 2.71,0.94 5.73,2.13 10.9,5.05 16.2,8.13 7.09,4.13 14.4,7.13 22.1,9.93 v 2 c 0.54,0.12 1.07,0.25 1.62,0.38 2.84,0.74 5.6,1.67 8.38,2.62 v 2 c 0.71,0.12 1.43,0.25 2.16,0.38 13.9,3.05 27.2,12 37.9,21 2.06,1.78 2.06,1.78 4.95,3.63 v 2 c 0.58,0.24 1.16,0.49 1.76,0.74 7.42,4.16 13.6,13.8 17.9,21 1.56,2.54 3.03,4.4 5.38,6.25 2.8,-0.44 5.24,-1.46 7.81,-2.62 1.17,-0.53 1.17,-0.53 2.35,-1.07 10.5,-4.81 10.5,-4.81 20.9,-9.86 2.94,-1.46 5.9,-2.76 8.92,-4.01 1.49,-0.62 1.49,-0.62 3,-1.26 16.5,-6.5 33.4,-8.53 50.9,-8.44 2.37,0.01 4.74,0 7.11,-0.01 7.76,-0.01 15.4,0.27 23.1,1.16 0.67,0.08 1.34,0.16 2.03,0.24 4.73,0.6 9.2,1.67 13.8,2.87 3.8,0.77 7.61,1.5 11.4,2.22 3.32,0.72 6.39,1.67 9.59,2.78 1.79,0.49 3.58,0.97 5.38,1.44 3.2,0.86 6.29,1.76 9.37,3 3.77,1.46 7.61,2.59 11.5,3.68 1.18,0.34 2.36,0.67 3.58,1.01 19,4.47 39.8,3.12 58.2,-2.54 14.7,-4.36 31.4,-3.45 46.5,-1.59 15.4,1.9 15.4,1.9 29.9,-2.7 2.99,-1.52 6,-2.54 9.2,-3.53 2.07,-0.67 4.08,-1.42 6.11,-2.2 10.3,-3.9 21.1,-6.58 32,-8.32 0.72,-0.12 1.44,-0.23 2.18,-0.35 12.8,-1.89 25.8,-2.1 38.7,-2.09 h 2.4 c 34.5,0.04 34.5,0.04 50,5.19 0.92,0.27 1.84,0.55 2.79,0.83 6.89,2.07 13.6,4.36 20.2,7.17 v 2 c 1.06,0.17 1.06,0.17 2.15,0.34 10.1,2.34 18.3,8.89 25.8,15.7 0.52,0.45 1.03,0.9 1.57,1.37 10.4,9.05 19.5,18.8 26.9,30.4 4.48,6.44 10.2,14.1 18,16.1 4.69,0.45 8.81,-0.78 13.3,-2.09 8.91,-2.18 18,-1.95 27.1,-1.92 2.31,0.01 4.63,0 6.95,-0.01 1.49,0 2.97,0.01 4.46,0.01 0.69,0 1.37,-0.01 2.08,-0.01 5.75,0.03 10.5,0.49 15.6,3.14 1.49,0.32 2.99,0.58 4.5,0.81 33.3,6.31 65.9,38.8 86.5,64.2 0.58,0.71 1.16,1.43 1.75,2.16 11.2,14.2 11.2,14.2 11.2,17.8 0.99,0.33 1.98,0.66 3,1 1.03,1.71 1.03,1.71 1.94,3.94 0.5,1.21 0.5,1.21 1.02,2.45 0.51,1.29 0.51,1.29 1.04,2.61 0.35,0.87 0.71,1.75 1.07,2.64 0.99,2.45 1.96,4.9 2.93,7.36 0.52,1.24 0.52,1.24 1.05,2.5 0.92,2.43 1.54,4.76 2.07,7.31 0.17,0.79 0.34,1.58 0.51,2.4 0.12,0.59 0.25,1.18 0.37,1.79 h 1 c 1.22,22.4 1.21,42.1 -8,63 -0.43,1.27 -0.85,2.54 -1.25,3.81 -1.62,4.44 -4.24,8.01 -7.03,11.8 -1.79,2.4 -1.79,2.4 -3.31,5.19 -0.7,1.09 -0.7,1.09 -1.41,2.2 h -2 c -0.23,0.72 -0.45,1.44 -0.69,2.19 -1.58,3.4 -3.57,5.26 -6.31,7.81 l -5,5 c -0.83,0.85 -1.65,1.69 -2.5,2.56 -6.6,6.44 -6.6,6.44 -10.5,6.44 v 2 c -6.13,4.45 -13.2,7.74 -20,11 -0.82,0.41 -1.63,0.82 -2.48,1.25 -21.4,10.4 -46,14.1 -69.6,14 -1.31,0 -2.62,-0.01 -3.96,-0.01 -10.9,-0.11 -21.3,-0.91 -32,-3.24 -3.33,-0.7 -6.66,-1.37 -10,-2 -0.92,-0.18 -1.84,-0.35 -2.78,-0.54 -17.6,-3.05 -35.5,-2.56 -53.2,-2.11 -5.72,0.15 -11.4,0.26 -17.2,0.38 -1.68,0.04 -1.68,0.04 -3.4,0.08 -57.5,1.21 -57.5,1.21 -72.9,-2.89 -9.57,-2.46 -20.1,1.11 -29.6,3.08 -6.59,1.32 -13.1,2.28 -19.8,2.75 -2.25,0.13 -2.25,0.13 -4.21,1.25 -3.23,0.26 -6.45,0.44 -9.68,0.61 -3.45,-0.11 -3.45,-0.11 -6.32,1.39 -14.5,1.46 -29.3,1.28 -43.8,0.19 -1.1,-0.08 -2.2,-0.17 -3.33,-0.25 -5.47,-0.47 -10.8,-1.19 -16.1,-2.5 -3.7,-0.89 -6.35,-1.32 -9.74,0.69 -1.5,1.04 -2.99,2.09 -4.48,3.15 -7.38,4.86 -15.6,8.04 -24.2,10.1 -2.46,0.58 -2.46,0.58 -4.78,1.65 -3.37,1.26 -6.72,1.71 -10.3,2.11 -0.75,0.09 -1.49,0.17 -2.25,0.26 -16.6,1.7 -33.6,0.83 -50.1,-2.08 -1.01,-0.1 -2.02,-0.2 -3.06,-0.3 -2.56,2.34 -3.82,4.62 -5.32,7.72 -1.89,3.7 -4.01,7.16 -6.24,10.7 -0.4,0.64 -0.8,1.28 -1.21,1.94 -1.02,1.59 -2.12,3.14 -3.23,4.68 h -2 l -0.94,1.88 c -0.68,1.37 -1.37,2.74 -2.06,4.12 h -3 c -0.15,0.96 -0.15,0.96 -0.31,1.94 -0.23,0.68 -0.46,1.36 -0.69,2.06 -0.99,0.33 -1.98,0.66 -3,1 -0.29,0.58 -0.58,1.15 -0.88,1.75 -1.52,3.04 -3.61,4.99 -6.12,7.25 h -2 c -0.25,0.64 -0.5,1.28 -0.75,1.94 -1.25,2.06 -1.25,2.06 -3.31,2.62 -0.64,0.15 -1.28,0.29 -1.94,0.44 l -1,3 c -2.65,1.82 -2.65,1.82 -5.94,3.69 -1.08,0.62 -2.16,1.24 -3.27,1.88 -2.79,1.43 -2.79,1.43 -4.79,1.43 v 2 c -0.88,0.34 -1.76,0.68 -2.67,1.02 -1.16,0.45 -2.32,0.9 -3.52,1.36 -1.15,0.44 -2.29,0.88 -3.48,1.33 -1.95,0.75 -3.89,1.52 -5.82,2.33 -25.4,9.7 -56.4,8.05 -81.2,-2.51 -4.23,-1.97 -8.33,-4.05 -12.3,-6.53 v -2 c -0.83,-0.19 -1.65,-0.37 -2.5,-0.56 -4.07,-1.67 -6.58,-3.91 -9.77,-6.88 -1.66,-1.64 -1.66,-1.64 -3.73,-2.56 v -2 c -0.8,-0.31 -0.8,-0.31 -1.62,-0.62 -3.3,-1.91 -5.97,-4.43 -8.38,-7.38 v -2 h -2 c -1.64,-1.86 -3.14,-3.71 -4.62,-5.69 -0.45,-0.58 -0.89,-1.17 -1.35,-1.77 -6.54,-8.8 -12.4,-17.1 -14.5,-28.1 -0.47,-2.7 -0.47,-2.7 -2.57,-5.46 -0.24,-0.7 -0.48,-1.4 -0.73,-2.12 -1.17,-2.18 -1.17,-2.18 -4.05,-2.59 -1.16,-0.1 -2.32,-0.2 -3.51,-0.3 -1.27,-0.12 -2.54,-0.24 -3.85,-0.36 -1.35,-0.11 -2.7,-0.21 -4.05,-0.32 -1.33,-0.11 -2.66,-0.23 -3.98,-0.35 -2.47,-0.22 -4.94,-0.43 -7.4,-0.63 -6.05,-0.58 -11.6,-1.61 -17.4,-3.33 -4.43,-1.12 -8.77,-1.15 -13.3,-1.12 h -2.42 c -5.27,0.05 -10.5,0.21 -15.8,0.5 -11.6,0.61 -23.1,0.64 -34.6,0.51 -36.2,-0.39 -72,-0.08 -108,3.05 -0.82,0.07 -1.63,0.14 -2.46,0.21 -5.33,0.46 -10.7,0.94 -16,1.44 -1.03,0.1 -1.03,0.1 -2.07,0.19 -1.89,0.18 -3.78,0.37 -5.67,0.56 -1.06,0.1 -2.12,0.2 -3.21,0.31 -2.48,0.21 -2.48,0.21 -4.48,1.35 -13.5,2.09 -27.3,2.2 -40.9,2.19 h -2.07 c -9.98,0 -19.4,-0.15 -29,-3.19 -1.49,-0.44 -1.49,-0.44 -3.01,-0.88 -6.59,-1.95 -12.8,-4.17 -19,-7.12 -1.77,-0.82 -3.54,-1.63 -5.31,-2.44 -0.93,-0.42 -1.86,-0.85 -2.82,-1.29 -2.85,-1.26 -5.73,-2.42 -8.62,-3.58 -5.37,-2.22 -10.4,-4.82 -15.5,-7.61 -3.72,-2.03 -7.47,-3.95 -11.3,-5.78 -5.7,-2.74 -10.7,-5.68 -15.5,-9.73 -1.76,-1.45 -3.54,-2.67 -5.47,-3.88 -1.21,-0.84 -1.21,-0.84 -2.44,-1.69 v -2 c -0.56,-0.25 -1.13,-0.49 -1.71,-0.75 -2.69,-1.47 -4.66,-3.23 -6.91,-5.31 -3.49,-3.21 -7.01,-6.37 -10.6,-9.5 -4.31,-3.88 -8.08,-8.01 -11.8,-12.4 -1.9,-2.12 -3.8,-4.23 -5.71,-6.34 -1.29,-1.66 -1.29,-1.66 -1.29,-3.66 h -2 c -1.48,-2.06 -2.81,-4.09 -4.12,-6.25 -0.38,-0.59 -0.75,-1.17 -1.13,-1.78 -2.06,-3.36 -2.75,-4.92 -2.75,-8.97 h -2 c -1.5,-3.37 -2,-5.2 -2,-9 h -2 c -0.27,-0.88 -0.53,-1.76 -0.8,-2.67 -0.53,-1.74 -0.53,-1.74 -1.08,-3.52 -0.52,-1.72 -0.52,-1.72 -1.05,-3.48 -0.91,-2.84 -1.95,-5.57 -3.07,-8.33 -0.36,-1.66 -0.69,-3.33 -1,-5 -0.33,-1.2 -0.67,-2.39 -1.01,-3.63 -1.1,-4.38 -1.3,-8.52 -1.29,-13 -0.01,-0.81 -0.01,-1.62 -0.01,-2.46 -0.01,-1.71 -0.01,-3.41 -0.01,-5.12 0.01,-2.55 -0.02,-5.09 -0.04,-7.64 -0.04,-8.57 0.38,-16.9 1.69,-25.4 0.12,-0.76 0.23,-1.52 0.35,-2.31 0.87,-5.07 2.35,-9.68 4.32,-14.4 0.32,-0.78 0.65,-1.57 0.98,-2.38 0.28,-0.63 0.56,-1.25 0.84,-1.9 0.31,-0.7 0.62,-1.39 0.93,-2.11 0.31,-0.7 0.62,-1.39 0.94,-2.11 0.32,-0.73 0.64,-1.45 0.97,-2.2 0.78,-1.77 1.56,-3.53 2.34,-5.3 h 2 c 0.4,-1.09 0.4,-1.09 0.82,-2.21 1.15,-2.72 2.47,-4.97 4.12,-7.41 0.5,-0.76 1.01,-1.52 1.52,-2.29 1.41,-1.91 2.85,-3.45 4.54,-5.09 1.11,-1.29 2.21,-2.58 3.31,-3.88 4.29,-4.9 8.33,-9.06 14.7,-11.1 v -2 c 2.97,-0.99 2.97,-0.99 6,-2 v -2 c 19.2,-10.7 19.2,-10.7 29,-12.6 2.03,-0.2 2.03,-0.2 3.05,-1.4 13.6,-2.44 27.2,-2.23 41,-2 2.27,-3.94 4.49,-7.86 6.5,-11.9 0.42,-0.84 0.83,-1.68 1.26,-2.55 0.41,-0.83 0.82,-1.66 1.24,-2.51 l 2.31,-4.62 c 0.56,-1.12 1.12,-2.23 1.69,-3.38 h 2 c 0.27,-0.72 0.54,-1.44 0.81,-2.19 1.19,-2.81 2.46,-5.29 4.19,-7.81 h 2 c 0.37,-1.09 0.37,-1.09 0.75,-2.2 4.26,-9.52 15.7,-19.9 24.2,-25.8 h 2 v -2 c 0.51,-0.25 1.03,-0.5 1.56,-0.76 2.54,-1.29 5.05,-2.65 7.56,-4.01 3.28,-1.77 6.58,-3.5 9.88,-5.23 0.91,-0.48 1.82,-0.96 2.76,-1.46 12.8,-6.29 27.7,-8.99 41.6,-11.6 0.81,-0.16 1.62,-0.31 2.46,-0.48 7.46,-1.09 14.9,-1.53 22.4,-1.67 1.09,-0.02 1.09,-0.02 2.2,-0.04 3.03,-0.06 6.05,-0.12 9.08,-0.15 2.24,-0.03 4.48,-0.07 6.72,-0.12 1.31,-0.02 2.63,-0.04 3.99,-0.06 6.51,-0.73 11.4,-3.69 16.9,-7.23 7.91,-4.96 16.2,-8.77 24.9,-12.2 1.22,-0.51 1.22,-0.51 2.47,-1.03 24.3,-9.32 47.7,-6.21 71.5,2.03 z m -47,45 c -0.78,0.1 -1.56,0.19 -2.37,0.29 -5.99,0.8 -11.1,2.56 -16.6,5.09 -0.64,0.29 -1.27,0.58 -1.93,0.88 -3.7,1.78 -6.41,3.68 -9.13,6.74 -0.74,0.71 -0.74,0.71 -1.5,1.44 -1.66,1.68 -1.66,1.68 -3.56,4.18 -3.01,3.69 -5.52,3.66 -10.2,4.13 -0.9,0.08 -1.79,0.16 -2.72,0.25 -0.95,0.09 -1.89,0.18 -2.87,0.27 -9.27,0.78 -18.5,1.01 -27.8,1.23 -21.6,0.52 -40.3,1.97 -60.4,10.5 v 2 c -0.66,0.04 -1.32,0.08 -2,0.12 -3.72,1.09 -6.04,3 -9.04,5.41 -1.96,1.47 -1.96,1.47 -4.02,2.45 -2.23,1.17 -3.37,2.44 -4.94,4.4 -1.73,2.11 -3.41,4.02 -5.38,5.93 -1.85,1.54 -1.85,1.54 -1.62,3.69 h -2 c -1.43,2.53 -2.85,5.07 -4.25,7.62 -0.4,0.7 -0.79,1.39 -1.2,2.11 -6.43,11.8 -8.19,23.5 -7.99,36.8 0,1.31 -0.01,2.62 -0.02,3.96 0.06,8.53 1.17,16.3 3.46,24.5 -21.4,-2.48 -21.4,-2.48 -29,-8 -1.83,-1.2 -3.66,-2.38 -5.5,-3.56 -0.92,-0.59 -1.85,-1.19 -2.8,-1.8 -9.3,-5.66 -17.8,-6.83 -28.6,-6.89 -0.84,-0.02 -1.69,-0.04 -2.56,-0.06 -6.06,-0.04 -11,1.06 -16.6,3.31 -0.87,0.34 -1.74,0.68 -2.64,1.03 -7.34,3.26 -12.6,6.9 -17.8,13.1 -1.61,1.88 -1.61,1.88 -3.92,4 -2.17,2.41 -2.85,4.78 -3.69,7.88 h -2 c -8.41,18.1 -10.2,40.9 -4.3,60.3 0.47,1.27 0.98,2.54 1.51,3.79 1.26,3.09 2.07,6.31 2.95,9.54 3.71,10.5 12.5,20.5 20.9,27.7 3.24,2.82 6.19,5.9 9.14,9.01 12.1,11.6 26.2,18.6 42.1,23.4 6.39,1.97 11.9,5 17.7,8.31 12.6,7.08 22.5,9.2 36.8,9.19 h 3.39 c 20.4,0.95 20.4,0.95 39.8,-3.19 4.18,-0.68 8.39,-1.17 12.6,-1.67 2.03,-0.25 4.06,-0.52 6.08,-0.78 32.7,-4.08 65.7,-3.78 98.5,-3.53 20.4,0.15 40.8,0.14 61.1,-0.9 0.82,-0.03 1.64,-0.07 2.48,-0.11 2.29,-0.12 4.58,-0.24 6.87,-0.38 1.3,-0.07 2.59,-0.14 3.93,-0.22 3.18,-0.39 5.46,-1.15 8.38,-2.41 5.76,-0.57 8.94,0.18 14,2.92 19.8,10.6 50,8.08 71,3.08 v -2 c 2.31,-0.33 4.62,-0.66 7,-1 0.19,1.12 0.39,2.25 0.59,3.4 0.26,1.51 0.52,3.03 0.79,4.54 0.13,0.79 0.27,1.57 0.41,2.39 0.14,0.78 0.27,1.55 0.41,2.36 0.19,1.07 0.19,1.07 0.38,2.17 0.44,2.22 0.97,4.39 1.54,6.58 1.07,4.47 1.17,8.98 1.38,13.6 0.5,10.4 1.84,18.1 7.5,27 0.38,0.62 0.76,1.24 1.16,1.88 5.65,8.55 14.1,14 22.8,19.1 0.69,0.42 1.39,0.83 2.11,1.26 5.71,2.98 11.6,3.52 18,4.06 3.72,0.33 6.75,0.65 9.94,2.68 l 1,-2 c 2.3,-0.37 4.62,-0.65 6.94,-0.88 6.55,-0.74 12.1,-2.24 18.1,-5.12 0.64,-0.31 1.28,-0.61 1.94,-0.93 1.37,-0.66 2.72,-1.36 4.06,-2.07 v -2 c 0.72,-0.24 1.43,-0.48 2.17,-0.73 3.25,-1.46 5.43,-3.26 8.08,-5.65 0.87,-0.77 1.74,-1.54 2.64,-2.33 2.14,-2.32 2.46,-3.34 3.11,-6.29 0.99,-0.33 1.98,-0.66 3,-1 7.07,-9.72 11.7,-21.3 13.6,-33.2 0.36,-1.83 0.36,-1.83 1.36,-2.83 0.16,-1.85 0.25,-3.71 0.32,-5.57 0.06,-1.68 0.06,-1.68 0.12,-3.4 0.04,-1.19 0.08,-2.37 0.12,-3.59 0.05,-1.19 0.09,-2.38 0.13,-3.6 0.11,-2.95 0.21,-5.89 0.31,-8.84 1.34,-0.4 1.34,-0.4 2.71,-0.81 3.07,-1.11 5.22,-2.31 7.85,-4.19 3.05,-2.18 5.91,-3.71 9.44,-5 0.21,0.56 0.41,1.11 0.62,1.69 1.96,3.28 4.32,5.02 7.38,7.31 h 2 c 0.22,0.59 0.45,1.18 0.68,1.78 3.81,6.4 13.6,10.2 20.3,13.2 0.79,0.36 1.58,0.72 2.4,1.09 10.1,4.35 19.7,4.16 30.6,3.91 0.79,-0.01 1.59,-0.01 2.41,-0.02 14.2,-0.74 27.4,-10.2 37,-20.1 3.5,-3.93 3.5,-3.93 4.63,-8.86 4.99,0.7 9.35,1.35 13,5 1.89,0.79 1.89,0.79 4.06,1.44 4.75,1.49 4.75,1.49 7.01,2.35 11.9,4.48 25.2,4.62 37.8,4.59 h 2.18 c 11.3,-0.03 22.4,-0.77 33.6,-2.13 1.31,-0.16 2.62,-0.31 3.97,-0.48 13,-1.73 25.6,-5.02 38.1,-9.1 1.78,-0.57 3.57,-1.12 5.35,-1.67 0.84,-0.27 1.67,-0.54 2.54,-0.82 3.6,-0.26 5.95,1.07 9.21,2.57 27,11.3 62.7,7.27 91.2,4.72 8.26,-0.65 16.5,-0.62 24.8,-0.6 2.72,0.01 5.43,0 8.15,-0.01 1.74,0 3.49,0.01 5.23,0.01 0.8,0 1.61,-0.01 2.44,-0.01 11.4,0.05 11.4,0.05 14.4,3.14 2.27,0.39 2.27,0.39 4.81,0.5 2.78,0.17 4.9,0.38 7.48,1.46 3.73,1.43 7.38,1.77 11.3,2.16 0.84,0.09 1.67,0.17 2.53,0.26 25,2.3 53.7,1.3 75.7,-12.1 2.12,-1.25 2.12,-1.25 5.12,-1.25 1.35,-1.65 2.68,-3.32 4,-5 1.23,-1.1 2.48,-2.19 3.75,-3.25 7.83,-6.76 12.9,-12.9 16.2,-22.8 0.55,-1.26 1.11,-2.51 1.69,-3.75 4.36,-10.8 3.94,-27 0.29,-37.9 -1.68,-3.98 -3.74,-7.64 -5.98,-11.3 -0.65,-1.21 -1.29,-2.42 -1.94,-3.62 -4.22,-6.92 -9.93,-12.3 -15.7,-18 -1.94,-1.98 -3.75,-3.97 -5.5,-6.11 -2.64,-3.16 -5.57,-5.79 -8.71,-8.44 -1.48,-1.27 -2.91,-2.6 -4.31,-3.96 -7.39,-7.14 -15.9,-12 -24.9,-16.9 -0.66,-0.37 -1.31,-0.73 -1.99,-1.11 -8.21,-4.4 -16.2,-5.24 -25.4,-5.2 -0.87,-0.02 -1.75,-0.03 -2.66,-0.05 -9.15,-0.01 -16.6,2.74 -24.9,6.36 -2.64,0.92 -5.31,1.72 -8,2.5 -0.74,0.21 -1.47,0.43 -2.23,0.65 -10.5,2.97 -20.8,5.41 -31.8,4.85 -1.15,-2.75 -2.29,-5.5 -3.44,-8.25 -0.32,-0.78 -0.65,-1.55 -0.98,-2.36 -0.32,-0.75 -0.63,-1.5 -0.95,-2.28 -0.43,-1.04 -0.43,-1.04 -0.87,-2.1 -0.76,-2.01 -0.76,-2.01 -1.23,-4.13 -0.87,-3.08 -3.24,-4.69 -5.53,-6.88 -1.17,-1.37 -2.34,-2.74 -3.5,-4.12 -2.6,-3.02 -4.95,-5.01 -8.5,-6.88 -2.35,-2.07 -3.68,-4.05 -5,-6.88 -2.27,-4.69 -2.27,-4.69 -5,-9.12 h -2 c -0.25,-0.72 -0.49,-1.44 -0.75,-2.19 -5.48,-12.3 -21.7,-20.8 -33.6,-25.6 -12.8,-4.6 -25.4,-7.4 -39,-7.42 -0.88,0 -1.76,0 -2.67,-0.01 -1.86,0 -3.73,-0.01 -5.59,-0.01 -2.79,0 -5.59,-0.02 -8.38,-0.03 -18.9,-0.37 -18.9,-0.37 -37,4.22 -1.51,0.31 -3.04,0.58 -4.56,0.81 -6.2,1.17 -11.7,3.62 -17.4,6.19 -0.76,0.33 -1.52,0.66 -2.3,1 -2.25,0.98 -4.47,1.99 -6.7,3 -1.06,0.48 -2.11,0.95 -3.2,1.44 -5.76,2.62 -11.4,5.28 -16.8,8.56 v 2 c -5.44,-0.39 -9.16,-1.39 -14,-3.95 -6.67,-3.42 -13.1,-4.44 -20.6,-4.84 -2.5,-0.21 -2.5,-0.21 -4.5,-1.21 -4.65,-0.31 -4.65,-0.31 -9,1 -1.9,0.14 -3.81,0.27 -5.71,0.39 -12.9,0.94 -23.4,5.56 -34,12.7 -3.25,1.94 -3.25,1.94 -5.62,1.74 -2.93,-0.89 -5.28,-2.16 -7.94,-3.68 -10.6,-5.45 -23.7,-7.72 -35.4,-5.37 -4.94,0.62 -8.17,-1.13 -12.4,-3.44 -7.12,-3.6 -14.1,-6.2 -21.8,-8.31 -1.67,-0.52 -3.33,-1.04 -5,-1.56 -10.3,-3.05 -20.5,-5.01 -31.2,-5.75 -1.2,-0.09 -2.39,-0.17 -3.63,-0.26 -13.4,-0.79 -29.4,-1.5 -42.1,3.57 -1.2,0.44 -1.2,0.44 -2.42,0.89 -9.01,3.56 -17.4,7.98 -25.9,12.7 -1.03,0.57 -1.03,0.57 -2.07,1.14 -2.97,1.67 -5.43,3.12 -7.91,5.5 -4.27,2.83 -8.81,2.62 -13.8,2.99 -11.3,1.08 -20.2,4.29 -30.1,9.8 -1.3,0.72 -2.64,1.39 -3.99,2.01 -2,0.87 -2,0.87 -2.83,3 -1.86,-0.18 -1.86,-0.18 -4,-1 -1.24,-2.23 -1.24,-2.23 -2.31,-5.19 -8.54,-21.9 -21.4,-49.7 -44.1,-60 -1.53,-0.61 -3.07,-1.22 -4.62,-1.81 -2.02,-0.83 -4.04,-1.66 -6.06,-2.5 -1.02,-0.42 -2.04,-0.84 -3.08,-1.27 -3.08,-1.32 -6.03,-2.8 -9,-4.33 C 23.05,67.71 20.4,66.75 17.71,65.78 14.67,64.66 11.73,63.35 8.76,62.06 7.58,61.63 7.58,61.63 6.38,61.18 c -10.9,-4.67 -10.9,-4.67 -12.6,-8.12 -1.63,-0.75 -3.26,-1.48 -4.92,-2.14 -2.08,-0.86 -2.08,-0.86 -4.16,-1.91 -5.25,-2.6 -9.79,-3.49 -15.6,-3.77 -2.29,-0.18 -2.29,-0.18 -4.29,-1.18 -4.21,-0.16 -7.9,0.15 -12,1 z m 550,6 4,1 z m 59,0 4,1 z m -363,4 v 1 h 5 v -1 z m 232,16 v 1 h 5 v -1 z m -91,5 v 1 h 7 v -1 z m -648,35 4,1 z m -86,76 1,2 z"
         fill="#f6fafb"
         id="path154" /><path
         transform="translate(524,661)"
         d="m 0,0 c 2.16,1.01 3.25,2.13 4.88,3.88 3.57,3.36 6.78,4.75 11.4,6.17 9.77,3.08 18.8,7.32 28,12 2.89,1.47 5.82,2.86 8.8,4.17 0.68,0.3 1.36,0.59 2.05,0.9 1.69,0.73 3.38,1.44 5.07,2.16 10.4,6.14 19.1,23.4 22.8,34.6 0.3,3.33 0.3,3.33 0.31,6.93 0.01,1.19 0.03,2.37 0.05,3.59 -0.49,4.65 -1.68,8.05 -5.3,11.1 -0.68,0.38 -1.36,0.77 -2.06,1.17 -0.69,0.4 -1.37,0.79 -2.07,1.2 -6.83,3.46 -16.7,3.37 -24.1,1.42 C 45,87.58 40.47,85.26 35.93,82.86 35.24,82.5 34.56,82.14 33.85,81.77 30.59,80.07 27.35,78.33 24.13,76.55 21.42,75.12 18.8,73.92 15.93,72.86 15.28,72.61 14.63,72.36 13.97,72.11 12.65,71.62 11.32,71.13 10,70.64 8.12,69.93 6.27,69.15 4.43,68.36 -0.2,66.61 -5.02,65.84 -9.87,64.98 c -4.35,-0.77 -8.65,-1.66 -13,-2.69 -5.1,-1.21 -10.2,-2.15 -15.4,-2.97 -3.55,-0.58 -7.07,-1.3 -10.6,-2.03 -2.11,-0.4 -4.2,-0.72 -6.33,-1 -2.93,-0.43 -2.93,-0.43 -3.93,-1.43 -2.74,-0.3 -5.45,-0.52 -8.19,-0.69 -0.76,-0.06 -1.51,-0.12 -2.29,-0.18 -7.08,-0.45 -12.3,1.4 -18.5,4.87 -0.34,0.65 -0.66,1.32 -1,2 1.01,0.37 1.01,0.37 2.05,0.75 3.51,1.48 6.8,3.29 10.1,5.12 5.81,3.15 11.6,5.82 17.8,8.13 1.66,0.68 3.33,1.37 5,2.06 4.25,1.71 8.54,3.03 13,4.22 2.04,0.72 2.04,0.72 4.04,2.72 2.15,0.79 2.15,0.79 4.62,1.43 3.85,1.06 7.54,2.34 11.3,3.76 2.06,0.79 4.14,1.55 6.21,2.31 1.36,0.5 2.72,1 4.08,1.5 0.69,0.24 1.37,0.49 2.08,0.74 3.86,1.43 7.25,3.09 10.7,5.26 1.44,0.59 2.9,1.15 4.37,1.68 10.7,4.19 20.9,10.2 30.6,16.3 0.95,0.58 1.9,1.17 2.87,1.78 7.53,4.72 7.53,4.72 10.6,7.29 2.55,1.96 4.81,3.05 7.82,4.17 0.88,0.34 1.76,0.68 2.67,1.02 1,0.36 1,0.36 2.02,0.74 2.36,-6.03 2.69,-12 3.21,-18.4 0.11,-1.23 0.11,-1.23 0.22,-2.49 0.06,-0.75 0.12,-1.5 0.19,-2.27 0.38,-1.87 0.38,-1.87 2.38,-3.87 1.23,0.14 2.47,0.28 3.74,0.43 2.17,0.19 2.17,0.19 4.26,-0.43 1.87,-2.15 3.15,-4.32 4.48,-6.84 1.88,-2.69 3.4,-3.27 6.52,-4.16 4.87,0.12 8.63,2.63 12,6 2.98,4.15 5.49,8.54 8,13 l 2.4,4.23 c 1.55,2.74 3.09,5.48 4.61,8.23 3.28,6.95 3.28,6.95 9.11,11.2 0.62,0.12 1.24,0.25 1.88,0.38 v -2 c 0.68,-0.21 1.37,-0.41 2.08,-0.61 3.94,-1.88 6.51,-4.56 9.54,-7.65 0.57,-0.56 1.14,-1.12 1.73,-1.69 3.4,-3.42 5.73,-6.56 7.65,-11 h 2 c 1.92,-2.66 3.62,-5.37 5.3,-8.18 0.43,-0.73 0.87,-1.45 1.32,-2.2 0.4,-0.69 0.81,-1.38 1.23,-2.09 0.38,-0.5 0.75,-1.01 1.15,-1.53 h 2 c 0.16,-0.71 0.32,-1.41 0.5,-2.13 3.05,-5.85 9.32,-9.44 15.5,-11.5 4.73,-0.95 8.61,-0.26 12.8,2.28 4.99,5.13 6.97,9.91 8.32,16.8 1.13,5.55 2.57,10.4 4.94,15.6 0.35,0.94 0.7,1.89 1.06,2.87 0.74,2.29 0.74,2.29 2.94,3.13 v 2 h 2 c 0.12,-0.54 0.25,-1.07 0.38,-1.62 3.04,-11.8 7.33,-22.3 13.2,-32.9 3.3,-5.43 3.3,-5.43 3.37,-11.5 -2.5,-2 -5.18,-3.52 -8,-5 0.24,-2.88 0.24,-2.88 1,-6 2.84,-1.9 5.19,-2.21 8.56,-2.32 2.34,-0.14 2.34,-0.14 4.44,-0.68 1.99,-2.43 1.99,-2.43 3,-5 h 2 c 0.41,-0.48 0.82,-0.95 1.24,-1.44 3.56,-3.18 8.96,-2.69 13.5,-2.7 h 3.25 c 1.1,0 2.21,0.01 3.35,0.01 1.1,0 2.2,-0.01 3.33,-0.01 8.53,0.01 16.1,0.6 24.3,3.14 1.19,0.33 2.38,0.66 3.62,1 19.1,5.59 36.6,14.5 49.1,30.4 2.34,2.66 2.97,2.96 6.26,3.57 -0.11,-1.2 -0.22,-2.39 -0.33,-3.62 -0.12,-1.56 -0.24,-3.13 -0.36,-4.7 -0.08,-0.78 -0.15,-1.57 -0.22,-2.38 -0.09,-1.13 -0.09,-1.13 -0.17,-2.29 -0.06,-0.7 -0.11,-1.4 -0.17,-2.11 0.25,-1.9 0.25,-1.9 1.54,-3.62 1.71,-1.28 1.71,-1.28 5.08,-1.91 3.63,0.63 3.63,0.63 6.19,3.37 2.59,4.18 4.6,8.68 6.74,13.1 2.73,5.08 6.17,9.6 9.7,14.2 6.2,-0.38 8.57,-1.99 13,-6 h 2 c 0.71,-0.96 0.71,-0.96 1.43,-1.94 1.57,-2.06 1.57,-2.06 4.57,-3.06 0.51,-0.52 1.03,-1.04 1.56,-1.57 0.47,-0.47 0.95,-0.95 1.44,-1.43 h 2 v -2 c 1.48,-0.5 1.48,-0.5 3,-1 0.33,-0.66 0.65,-1.32 1,-2 1.32,-0.68 2.66,-1.35 4,-2 1.48,-1.1 2.93,-2.23 4.37,-3.38 9.33,-7.32 17.5,-12 29.6,-10.6 9.15,1.64 16.4,7.65 23.8,13 0.86,0.62 1.72,1.25 2.6,1.89 1.13,0.85 1.13,0.85 2.27,1.72 2.83,1.62 5.12,2.09 8.36,2.35 3.52,-1.61 4.82,-2.75 7,-6 1.58,-0.95 3.17,-1.88 4.79,-2.76 3.67,-2.07 7.14,-4.44 10.6,-6.76 2.27,-1.32 3.99,-2.04 6.56,-2.48 v -2 c 24.7,-12.5 24.7,-12.5 38,-15 1.07,-0.23 2.14,-0.45 3.24,-0.67 19.6,-3.44 43.8,-3.47 61.8,5.67 7.67,5.91 10.8,14.5 13.1,23.6 1.51,5.81 3.03,11 5.88,16.4 v 2 c 1.78,0.86 1.78,0.86 4,1 1.35,-1.32 2.68,-2.65 4,-4 2.68,-0.82 2.68,-0.82 5,-1 2.66,2.66 1.9,9.18 2.01,12.8 -0.04,4.92 -0.69,9.8 -1.34,14.7 -0.57,4.4 -0.91,8.23 0.33,12.6 2.42,1.38 2.42,1.38 5,2 0.32,0.33 0.65,0.65 1,1 26.2,3.44 52.2,2.19 78,-3 0.98,-0.2 1.97,-0.4 2.99,-0.6 9.9,-2.01 19.5,-4.03 28.7,-8.39 2.48,-1.08 4.63,-1.73 7.34,-2.01 2.87,1.68 2.87,1.68 6,4 1.22,0.7 2.44,1.39 3.68,2.06 2.74,1.6 4.19,2.74 6.32,4.94 1.2,1.02 2.41,2.04 3.62,3.06 4.9,4.26 9.12,9.04 13.4,13.9 0.99,1.14 0.99,1.14 2.01,2.31 1.17,1.33 2.32,2.66 3.48,3.99 1.46,1.72 1.46,1.72 3.17,3.14 2.22,2.58 1.87,5.07 1.74,8.34 -0.68,3.69 -2.43,5.05 -5.4,7.22 -14.1,8.79 -34.1,10.7 -50.2,7.19 -2.43,-0.66 -4.85,-1.36 -7.26,-2.11 -3.77,-1.16 -7.53,-2.01 -11.4,-2.77 -1.15,-0.23 -2.3,-0.46 -3.49,-0.7 -9.84,-1.66 -19.5,-1.81 -29.4,-1.8 h -2.5 c -17.7,0 -35.3,0.67 -53,1.47 -10.8,0.49 -21.6,0.85 -32.5,0.96 -1.06,0.03 -2.11,0.05 -3.2,0.07 -1.47,0.01 -1.47,0.01 -2.97,0.01 -1.29,0.02 -1.29,0.02 -2.61,0.03 -2.46,-0.35 -2.46,-0.35 -7.46,-3.35 0.32,-7.6 0.65,-15.2 1,-23 -1.92,0.88 -3.84,1.77 -5.82,2.68 -1.19,0.55 -2.38,1.1 -3.61,1.67 -2.15,0.99 -4.29,1.98 -6.43,2.98 -12.6,5.84 -25.7,10.4 -38.8,14.8 -1.51,0.52 -3.01,1.06 -4.51,1.62 -6.46,2.33 -13,3.34 -19.8,4.32 -1.12,0.17 -2.23,0.34 -3.38,0.51 -22.3,3.33 -48.6,7.11 -68.4,-6.13 -1.44,-1.14 -2.86,-2.3 -4.24,-3.5 -0.93,-0.79 -1.86,-1.57 -2.82,-2.38 -5.97,-7.16 -8.83,-14.2 -8.18,-23.6 1.54,-4.27 3.39,-8.27 6,-12 h 2 c 0.26,-0.75 0.53,-1.49 0.81,-2.26 1.19,-2.74 1.19,-2.74 2.87,-4.81 1.55,-1.85 1.55,-1.85 1.13,-4.12 -0.67,-2.01 -0.67,-2.01 -2.81,-2.81 -8.76,-0.53 -16.9,-0.69 -25,3 -0.74,0.29 -1.47,0.58 -2.23,0.87 -8.24,3.38 -17.8,8.61 -22.8,16.1 h -2 c -0.25,0.8 -0.5,1.6 -0.76,2.43 -0.93,2.68 -1.93,4.93 -3.18,7.44 -3.85,8.63 -4.78,18.3 -5.78,27.6 -0.12,1.12 -0.24,2.24 -0.36,3.4 -0.24,2.23 -0.46,4.47 -0.66,6.72 -0.11,1.03 -0.21,2.06 -0.32,3.13 -0.09,0.92 -0.17,1.85 -0.26,2.8 -0.87,3.17 -2.12,4.48 -4.68,6.5 -4.78,0.53 -8.64,-0.01 -13,-2 -2.44,-2.25 -2.44,-2.25 -5,-5 -1.12,-0.95 -2.25,-1.89 -3.38,-2.82 -3.98,-3.36 -7.3,-7.19 -10.6,-11.2 -0.75,-0.89 -1.49,-1.78 -2.26,-2.69 -0.86,-1.15 -0.86,-1.15 -1.74,-2.31 -0.52,-0.67 -1.04,-1.34 -1.58,-2.03 -2.04,-4.25 -1.95,-8.19 -2.05,-12.8 -0.05,-1.75 -0.11,-3.49 -0.16,-5.24 -0.03,-0.83 -0.06,-1.66 -0.09,-2.51 -0.17,-3.17 -0.6,-6.24 -1.12,-9.37 -0.68,0.38 -1.36,0.77 -2.06,1.17 -0.93,0.52 -1.86,1.04 -2.82,1.57 -1.36,0.77 -1.36,0.77 -2.74,1.55 -7.89,3.98 -16,6.57 -24.5,8.77 -15.4,3.92 -15.4,3.92 -28.9,11.9 0.97,2.18 1.73,3.76 3.55,5.35 1.89,2.15 1.82,3.38 1.76,6.21 -0.01,0.78 -0.01,1.57 -0.01,2.38 -0.3,2.06 -0.3,2.06 -2.3,4.06 -1.97,0.4 -3.95,0.73 -5.94,1 -3.86,0.52 -5.78,0.81 -9.06,3 -2.56,0.23 -2.56,0.23 -5.44,0.18 -0.95,0 -1.9,-0.01 -2.87,-0.02 -2.4,-0.15 -4.39,-0.56 -6.69,-1.16 -2.34,-0.04 -4.67,-0.05 -7,0 -1.09,3.38 -0.93,6.03 -0.48,9.53 0.13,1.06 0.27,2.11 0.4,3.2 0.15,1.1 0.3,2.2 0.45,3.33 0.21,1.65 0.21,1.65 0.42,3.34 0.72,5.88 0.72,5.88 2.21,11.6 2,15.6 2.6,30.4 -6,44 h -2 c -0.33,0.99 -0.67,1.98 -1,3 -2.48,2.56 -3.85,2.98 -7.44,3.37 -3.77,-0.4 -5.65,-0.98 -8.56,-3.37 -1.39,-2.68 -0.95,-4.32 -0.44,-7.32 0.94,-6.38 0.41,-15.8 -2.53,-21.6 -1.16,-2.36 -1.7,-4.54 -2.25,-7.1 -0.21,-0.97 -0.42,-1.93 -0.64,-2.93 -0.21,-1.01 -0.42,-2.03 -0.64,-3.07 -0.23,-1.04 -0.45,-2.07 -0.68,-3.14 -1.32,-6.23 -2.52,-12.4 -3.37,-18.8 -0.38,-2.39 -0.38,-2.39 -2.45,-5.1 -0.43,-1.93 -0.43,-1.93 -0.68,-4.1 -0.1,-0.8 -0.21,-1.6 -0.31,-2.42 -0.11,-0.84 -0.22,-1.68 -0.33,-2.55 -1.91,-12.8 -5.26,-19.6 -15.6,-27.5 -7.75,-6.05 -9.51,-13.3 -11.3,-22.7 -0.58,-3.07 -0.58,-3.07 -3.8,-4.75 -3.81,3.2 -5.18,6.54 -6.57,11.2 -0.32,1.01 -0.32,1.01 -0.64,2.03 -0.61,1.93 -1.2,3.86 -1.79,5.79 -2.62,8.51 -5.7,17.5 -12,24 h -2 c -0.33,0.99 -0.67,1.98 -1,3 -8.27,5.78 -17.1,7.3 -27,8 -0.82,0.05 -1.64,0.11 -2.49,0.17 -4.5,0.16 -8.28,-0.74 -12.5,-2.17 -0.64,-0.2 -1.28,-0.39 -1.94,-0.59 -7.82,-2.58 -13.5,-6.99 -18,-13.9 -1.4,-1.96 -3.14,-3.16 -5.09,-4.53 v -2 c -2.98,-0.34 -5.95,-0.66 -9,-1 -1.01,2.01 -2.02,4.03 -2.88,6.12 -1.41,2.34 -2.68,2.72 -5.12,3.88 -0.56,0.63 -1.12,1.27 -1.69,1.93 -5.95,5.3 -14.2,5.57 -21.8,5.75 -0.99,0.03 -1.99,0.07 -3.01,0.1 -10.6,0.32 -21.1,0.33 -31.7,0.29 -3.52,-0.01 -7.04,-0.02 -10.6,-0.02 -7.47,-0.02 -15,-0.03 -22.4,-0.05 -8.69,-0.03 -17.4,-0.05 -26.1,-0.06 -3.43,-0.01 -6.87,-0.02 -10.3,-0.03 -25.9,-0.67 -25.9,-0.67 -51.4,3.07 -4.65,1.24 -9.32,1.77 -14.1,2.3 -1.42,0.17 -1.42,0.17 -2.87,0.33 -2,0.23 -4,0.45 -6,0.67 -3,0.34 -6,0.68 -9.01,1.04 -35.3,4.01 -35.3,4.01 -46.8,-4.82 -0.75,-0.62 -1.5,-1.23 -2.28,-1.86 -2.23,-1.8 -4.51,-3.28 -7.03,-4.64 -0.6,-0.35 -1.2,-0.7 -1.81,-1.06 -2.59,-1.12 -4.63,-1.22 -7.45,-1.32 -7.53,-0.57 -13.2,-3.45 -18.7,-8.62 v -2 l -1.6,-0.64 c -3.4,-1.93 -6.02,-4.51 -8.84,-7.18 -0.84,-0.78 -0.84,-0.78 -1.7,-1.58 -7.99,-7.46 -14.4,-14 -15.1,-25.5 -0.01,-1.38 0,-2.76 0.01,-4.15 0,-0.69 -0.01,-1.39 -0.02,-2.1 0.02,-4.22 0.11,-8.67 3.28,-11.8 6.1,0 8.55,2.09 12.9,6.15 11.7,10.4 29.5,10.4 44.3,12 1.58,0.17 3.15,0.34 4.72,0.51 4.35,0.47 8.69,0.92 13,1.37 1.54,0.15 1.54,0.15 3.13,0.32 6.65,0.64 13.3,0.96 20,1.18 1.24,0.03 2.48,0.07 3.75,0.12 3.59,0.11 7.17,0.21 10.8,0.31 1.61,0.04 3.21,0.09 4.82,0.13 27.8,0.8 55.6,1.04 83.5,1.06 2.5,0 5.01,0 7.51,0.01 h 11.9 4.43 c 2.03,0 4.05,0 6.08,-0.01 h 3.47 c 2.66,0.06 2.66,0.06 4.69,-1.12 0.32,-2.36 0.32,-2.36 0,-5 -1.6,-1.92 -1.6,-1.92 -3.88,-3.44 -0.83,-0.6 -1.66,-1.2 -2.51,-1.82 -3.22,-2.15 -6.49,-4.15 -9.83,-6.09 -2.62,-1.56 -5.17,-3.2 -7.71,-4.87 -12.4,-8.16 -25.7,-15.3 -39.5,-20.7 -3.29,-1.33 -6.49,-2.84 -9.7,-4.36 -1.33,-0.62 -2.67,-1.25 -4,-1.87 -0.98,-0.46 -0.98,-0.46 -1.98,-0.93 -7.54,-3.56 -7.54,-3.56 -15.2,-6.79 -23.1,-9.44 -23.1,-9.44 -28.9,-17.9 -2.42,-6.98 0.21,-16.3 2.25,-23.2 h 2 c 1.33,-1.44 1.33,-1.44 2.68,-3.26 7.83,-9.28 19.8,-10.6 31.3,-11.7 3.56,-0.22 7.13,-0.33 10.7,-0.43 2.11,-0.08 4.21,-0.15 6.32,-0.22 1.09,-0.04 2.18,-0.08 3.3,-0.11 24.1,-0.84 47.8,-2.44 71.7,-6.24 -0.12,-0.62 -0.24,-1.24 -0.36,-1.88 -0.74,-4.13 -1.04,-7.22 0.98,-11 2.65,-3.49 4.85,-6.27 9.5,-6 z"
         fill="#f6fafb"
         id="path156" /><path
         transform="translate(1113,752)"
         d="m 0,0 c 5.11,4.43 9.43,8.65 12,15 0.35,0.59 0.7,1.18 1.05,1.79 3.13,5.4 3.77,10 2.95,16.2 -2.05,6.65 -7.17,9.72 -12.9,13.1 -16.5,8.31 -37.3,8.45 -55.3,10.3 -3.21,0.32 -6.39,0.7 -9.59,1.16 -11,1.57 -21,1.17 -30.6,-4.54 -0.86,-0.66 -1.73,-1.32 -2.62,-2 -0.64,-0.47 -1.28,-0.95 -1.94,-1.44 -1.06,-1.56 -1.06,-1.56 -0.87,-4 0.74,-2.35 1.61,-4.41 2.81,-6.56 h 2 l 2,-5 h 2 c 0.21,-0.72 0.41,-1.44 0.62,-2.19 1.75,-3.56 4.35,-5.4 7.38,-7.81 1.06,-0.88 2.13,-1.76 3.19,-2.65 7.53,-6.14 15.1,-11 23.8,-15.4 1.84,-1.06 3.67,-2.12 5.5,-3.19 5.9,-3.23 12,-5.04 18.5,-6.81 0.71,-0.24 1.42,-0.48 2.14,-0.72 9.54,-3.03 20,-1.38 27.9,4.72 z"
         fill="#000002"
         id="path158" /><path
         transform="translate(792,762)"
         d="m 0,0 c 8.53,4.23 15.7,10.4 21.5,17.9 0.55,0.65 1.11,1.3 1.68,1.97 2.16,3.32 1.51,6.14 1.32,10 -0.99,0.33 -1.98,0.66 -3,1 -0.44,0.92 -0.44,0.92 -0.88,1.87 -1.49,2.83 -3.22,3.65 -6,5.19 -2.56,1.44 -4.95,2.8 -7.25,4.62 -1.87,1.32 -1.87,1.32 -4.87,1.32 -0.5,0.99 -0.5,0.99 -1,2 -1.31,0.7 -2.65,1.36 -4,2 -0.85,0.53 -1.69,1.07 -2.56,1.62 -2.44,1.38 -2.44,1.38 -5.44,1.38 l -1,3 c -1.64,1.14 -1.64,1.14 -3.69,2.25 -3.83,2.25 -6.26,4.74 -8.89,8.29 -1.77,1.82 -2.9,2.24 -5.42,2.46 l -3,-2 c -1.26,-8.42 0.21,-17.8 2.98,-25.8 1.18,-3.68 1.87,-7.38 2.52,-11.2 0.82,-4.82 1.92,-9.37 3.5,-14 0.43,-2.04 0.84,-4.08 1.25,-6.13 0.99,-3.89 1.54,-5.63 4.25,-8.69 6.18,-2.09 11.8,-0.99 18,0.88 z"
         fill="#000002"
         id="path160" /><path
         transform="translate(1283,690)"
         d="M 0,0 H 7 V 1 H 0 Z"
         fill="#f7fbfc"
         id="path162" /><path
         transform="translate(777,620)"
         d="M 0,0 C 3,1 3,1 3,1 Z"
         fill="#f7fbfc"
         id="path164" /></g></g></svg>
